<svg width="48" height="71" viewBox="0 0 48 71" fill="none" xmlns="http://www.w3.org/2000/svg">
<path d="M12 71C18.6211 71 23.9961 65.6992 23.9961 59.168V47.332H12C5.375 47.332 0 52.6328 0 59.168C0 65.6992 5.375 71 12 71Z" fill="#BFBFBF" fill-opacity="0.68"/>
<path d="M0 35.5C0 28.9688 5.375 23.668 12 23.668H23.9961V47.332H12C5.375 47.332 0 42.0312 0 35.5Z" fill="#BFBFBF" fill-opacity="0.68"/>
<path d="M0 11.832C0 5.30078 5.375 0 12 0H23.9961V23.668H12C5.375 23.668 0 18.3672 0 11.832Z" fill="#BFBFBF" fill-opacity="0.68"/>
<path d="M23.9961 0H35.9922C42.6172 0 47.9922 5.30078 47.9922 11.832C47.9922 18.3672 42.6172 23.668 35.9922 23.668H23.9961V0Z" fill="#BFBFBF" fill-opacity="0.68"/>
<path d="M47.9922 35.5C47.9922 42.0312 42.6172 47.332 35.9922 47.332C29.3711 47.332 23.9961 42.0312 23.9961 35.5C23.9961 28.9688 29.3711 23.668 35.9922 23.668C42.6172 23.668 47.9922 28.9688 47.9922 35.5Z" fill="#BFBFBF" fill-opacity="0.68"/>
</svg>
