<?xml version="1.0" encoding="UTF-8"?>
<svg xmlns="http://www.w3.org/2000/svg" xmlns:xlink="http://www.w3.org/1999/xlink" width="42px" height="48px" viewBox="0 0 42 48" version="1.1">
<g id="surface1">
<path style=" stroke:none;fill-rule:nonzero;fill:rgb(91.372549%,79.215686%,19.607843%);fill-opacity:1;" d="M 3.515625 42.972656 L 0 0.0820312 L 42 0.167969 L 38.28125 42.972656 L 21.160156 47.917969 Z M 3.515625 42.972656 "/>
<path style=" stroke:none;fill-rule:nonzero;fill:rgb(100%,87.058824%,14.509804%);fill-opacity:1;" d="M 21.160156 43.777344 L 21.160156 4.164062 L 38.453125 4.222656 L 35.371094 39.664062 Z M 21.160156 43.777344 "/>
<path style=" stroke:none;fill-rule:nonzero;fill:rgb(100%,100%,100%);fill-opacity:1;" d="M 19.304688 8.867188 L 14.734375 8.867188 L 14.734375 35.234375 L 11.175781 34.558594 L 11.175781 31.007812 L 6.945312 30.332031 L 6.945312 38.277344 L 19.304688 41.488281 Z M 22.738281 8.867188 L 35.394531 8.867188 L 34.546875 13.921875 L 27.570312 13.921875 L 27.570312 22.214844 L 34.546875 22.214844 L 33.703125 38.953125 L 22.738281 41.488281 L 22.738281 36.246094 L 30.144531 33.710938 L 30.574219 26.78125 L 22.738281 27.914062 Z M 22.738281 8.867188 "/>
</g>
</svg>
